Coordinates
version=1
nRows=6
nColumns=63
inDegrees=yes

Units are S.I. units (second, meters, Newtons, ...)
If the header above contains a line with 'inDegrees', this indicates whether rotational values are in degrees (yes) or radians (no).

endheader
time	pelvis_tilt	pelvis_list	pelvis_rotation	pelvis_tx	pelvis_ty	pelvis_tz	hip_flexion_r	hip_adduction_r	hip_rotation_r	knee_angle_r	knee_angle_r_beta	ankle_angle_r	subtalar_angle_r	mtp_angle_r	hip_flexion_l	hip_adduction_l	hip_rotation_l	knee_angle_l	knee_angle_l_beta	ankle_angle_l	subtalar_angle_l	mtp_angle_l	L5_S1_Flex_Ext	L5_S1_Lat_Bending	L5_S1_axial_rotation	L4_L5_Flex_Ext	L4_L5_Lat_Bending	L4_L5_axial_rotation	L3_L4_Flex_Ext	L3_L4_Lat_Bending	L3_L4_axial_rotation	L2_L3_Flex_Ext	L2_L3_Lat_Bending	L2_L3_axial_rotation	L1_L2_Flex_Ext	L1_L2_Lat_Bending	L1_L2_axial_rotation	L1_T12_Flex_Ext	L1_T12_Lat_Bending	L1_T12_axial_rotation	Abs_r3	Abs_r2	Abs_r1	Abs_t1	Abs_t2	neck_flexion	neck_bending	neck_rotation	arm_flex_r	arm_add_r	arm_rot_r	elbow_flex_r	pro_sup_r	wrist_flex_r	wrist_dev_r	arm_flex_l	arm_add_l	arm_rot_l	elbow_flex_l	pro_sup_l	wrist_flex_l	wrist_dev_l
4.850000	12.020442	-23.753114	110.607876	0.220242	0.682241	0.936446	32.931514	0.213917	-4.945889	13.791819	0.240713	25.985016	-8.716496	0.000000	27.850630	-2.677527	21.235805	2.343593	0.040903	11.073008	-1.309266	0.000000	-0.040103	0.516728	0.285511	-0.074475	0.687248	0.303356	-0.065885	1.256371	0.303356	-0.045833	1.256371	0.249822	-0.037239	1.053711	0.231978	-0.022915	0.800411	0.214133	-0.286449	5.845325	1.587927	0.000000	0.000000	22.909437	-1.778754	-6.061455	11.475775	-25.388960	25.268412	60.343296	89.287987	-22.128706	-11.324617	7.336193	-16.164686	25.587673	48.847824	89.266840	-38.557982	-13.456315
4.866667	12.668659	-23.504649	111.729848	0.217493	0.680071	0.935994	33.251283	0.367301	-4.807548	14.449835	0.252197	27.053170	-9.901214	0.000000	27.796628	-2.810840	21.096887	1.924242	0.033584	11.890461	-0.384473	0.000000	-0.061245	0.597037	0.094847	-0.113738	0.794059	0.100775	-0.100619	1.451636	0.100775	-0.069997	1.451636	0.082991	-0.056872	1.217478	0.077063	-0.034995	0.924810	0.071135	-0.437465	6.753802	0.527511	0.000000	0.000000	22.915313	-1.824250	-4.917191	12.527090	-25.089369	24.829080	60.217362	89.280206	-21.207281	-10.366688	6.636931	-15.590171	24.613205	48.086180	89.273592	-38.227904	-13.609687
4.883333	13.226183	-23.268277	112.749597	0.215054	0.678013	0.935880	33.643555	0.466603	-4.659824	15.106989	0.263667	28.175582	-10.959551	0.000000	27.811212	-2.882805	20.980014	1.541983	0.026913	12.920991	0.500115	0.000000	-0.078629	0.666438	-0.096562	-0.146021	0.886363	-0.102597	-0.129179	1.620378	-0.102597	-0.089865	1.620378	-0.084492	-0.073014	1.359001	-0.078457	-0.044928	1.032313	-0.072421	-0.561636	7.538884	-0.537048	0.000000	0.000000	22.830231	-1.692686	-3.711743	14.012743	-24.655088	24.947369	59.673212	89.264210	-20.886729	-9.692992	5.899185	-14.963295	23.328648	47.445650	89.281174	-37.355292	-13.314147
4.900000	13.610203	-23.102784	113.535433	0.213145	0.676048	0.935995	34.146298	0.502431	-4.388772	15.778987	0.275395	29.350665	-11.872385	0.000000	27.898977	-2.869264	20.688846	1.202575	0.020989	14.106122	1.400690	0.000000	-0.091294	0.711066	-0.249855	-0.169542	0.945717	-0.265471	-0.149987	1.728885	-0.265471	-0.104340	1.728885	-0.218623	-0.084775	1.450005	-0.203007	-0.052165	1.101441	-0.187391	-0.652103	8.043717	-1.389617	0.000000	0.000000	22.698998	-1.426163	-2.745779	15.716938	-24.093593	25.226994	58.871502	89.246717	-20.882303	-9.171337	5.221063	-14.357674	21.949644	46.894752	89.279940	-36.069430	-12.617029
4.916667	13.826415	-23.020597	114.104666	0.211749	0.674180	0.936301	34.740154	0.460871	-4.050492	16.442017	0.286967	30.552426	-12.592116	0.000000	28.061001	-2.768073	20.287459	0.912487	0.015926	15.344129	2.200972	0.000000	-0.101014	0.731199	-0.366706	-0.187593	0.972495	-0.389625	-0.165956	1.777838	-0.389625	-0.115449	1.777838	-0.320868	-0.093802	1.491062	-0.297949	-0.057719	1.132628	-0.275030	-0.721534	8.271475	-2.039510	0.000000	0.000000	22.563643	-1.049184	-2.036743	17.587460	-23.427547	25.640229	57.871999	89.222953	-21.079844	-8.719654	4.627633	-13.793254	20.497044	46.416117	89.278562	-34.441742	-11.610184
4.933333	13.866885	-23.043735	114.434348	0.210882	0.672397	0.936703	35.414559	0.350255	-3.593496	17.083850	0.298169	31.738468	-13.162991	0.000000	28.297083	-2.584050	19.615014	0.677041	0.011817	16.572646	3.037517	0.000000	-0.107342	0.725048	-0.437783	-0.199344	0.964314	-0.465145	-0.176352	1.762881	-0.465145	-0.122681	1.762881	-0.383060	-0.099677	1.478518	-0.355699	-0.061335	1.123099	-0.328337	-0.766730	8.201886	-2.434819	0.000000	0.000000	22.448381	-0.597174	-1.644627	19.504407	-22.690939	26.013644	56.779101	89.199083	-21.340768	-8.264405	4.169835	-13.299073	19.134387	45.939777	89.265260	-32.694720	-10.447388
